<?xml version="1.0" encoding="UTF-8"?>
<svg id="Camada_2" data-name="Camada 2" xmlns="http://www.w3.org/2000/svg" viewBox="0 0 1756.56 2629.32">
  <defs>
    <style>
      .cls-1 {
        fill: #dd94d0;
        stroke-width: 0px;
      }
    </style>
  </defs>
  <g id="Camada_1-2" data-name="Camada 1">
    <path class="cls-1" d="M1.25,34.81c-12.7,174.08,72.31,341.81,194.19,461.47,60.25,59.16,129.88,108.81,203,150.77s152.68,72.64,227.22,112.77c35.9,19.32,69.24,40.89,97.82,69.56,27.66,27.75,48.65,59.4,65.63,95.61,15.99,34.08,28.46,76.5,31.55,115.94,1.6,20.44,1.68,42.1-1.81,61.85s-9.21,38.52-16.43,52.87c-15.61,31.03-36.29,54.5-66.24,70.46-8.94,4.77-9.71,5.04-19.12,7.93-3.95,1.21-7.96,2.25-12,3.1-.83.17-7.89,1.48-3.91.85,3.58-.57-5.89.53-5.72.52-8.12.56-16.21.31-24.3-.39,5.46.47-2.81-.45-4.5-.78-5.11-1-10.16-2.28-15.14-3.82-3.84-1.19-7.7-2.48-11.41-4.04,4.77,2.02-4.4-2.38-5.7-3.08-3.52-1.9-6.96-3.94-10.29-6.15-1.42-.94-2.82-1.92-4.21-2.92-1.95-1.41-1.85-1.33.3.24l-2.59-2.21c-2.87-2.76-5.81-5.37-8.53-8.29-1.06-1.14-7.32-9.29-4.24-4.83-2.28-3.3-4.44-6.67-6.38-10.19-.8-1.44-1.52-2.92-2.3-4.37-4.56-8.54.92,3.16-.81-2.01-1.18-3.54-2.29-7.09-3.14-10.73-.48-2.08-.88-4.17-1.26-6.27.1.58.58,5.46.21,1.32-.71-7.98-.74-16.07.26-24.03-.85,6.74.81-2.94,1.3-4.97.88-3.65,2.14-7.16,3.13-10.77.3-1.08,2.36-6.3-.02-.61.61-1.46,1.3-2.92,2.02-4.32,1.95-3.78,4.01-7.4,6.22-11.03.47-.77,4.21-6.18,1.81-2.91-2.17,2.96.91-1.11,1.17-1.39,2.48-2.7,4.96-5.31,7.58-7.87.66-.64,5.64-4.83,2.44-2.3-2.91,2.31,1.16-.78,1.5-.98,3.61-2.17,7.1-4.36,10.9-6.22-5.77,2.82,6.21-1.88,7.98-2.33,1.33-.34,10.16-1.84,5.57-1.35,4.9-.53,9.77-.36,14.68-.24,0,0,5.94.58,2.63.15-2.94-.38,6.3,1.36,6.17,1.33,15.02,3.61,29.07,11.03,42.37,21.12s28.51,25.97,39.72,40.66c20.31,26.63,37.75,62.41,52.08,94.85,6.31,14.3,12.72,30.55,19.2,48.37,6.34,17.43,12.21,35.04,17.73,52.75,44.38,142.56,64.97,292.12,118.77,431.82,55.32,143.65,159.31,304.27,325.18,326.26,93.36,12.38,184.61-22.81,266.24-64.76,38.53-19.8,77.62-40.53,113.44-64.97,38.11-26,70.18-58.11,86.59-101.98,15.64-41.82,10.9-91.14-19.03-125.32-25.04-28.6-67.26-43.5-104.4-33.75-41.97,11.02-64.87,50.03-68.16,91.05-3.09,38.61,10.41,76.37,21.58,112.64,52.92,171.86,68.31,356.44,42.52,534.57-6.43,44.38-15.3,88.36-26.4,131.81-4.65,18.2,5.95,37.77,24.31,42.82,17.92,4.92,38.15-6.03,42.82-24.31,46.43-181.75,52.62-372.19,19.45-556.74-8.07-44.9-18.56-89.36-31.49-133.11-5.81-19.67-12.75-39.03-17.79-58.91-2.08-8.22-3.96-16.55-5.13-24.95.71,5.13-.23-3.45-.32-4.93-.35-5.19-.33-10.33-.16-15.53.05-1.67.19-3.36.37-5.03-.18,1.75-1.49,5.8.25-.49.43-1.54.79-3.14,1.16-4.69.21-.9,2.34-7.22.84-3.34-1.34,3.47.58-1.19.82-1.59,1.09-1.81,2.05-3.63,3.22-5.41-3.08,4.69,3.28-3.36,5.35-4.97-5.55,4.33,6.76-2.96,2.24-1.01-2.64,1.14,5.39-1.37,7.46-1.72-6.89,1.18,1.92.46,4.44.53,4.05.11-.99-.25-1.57-.36,2.59.46,5.07,1.15,7.62,1.79.9.23,7.12,2.38,3.29.89-3.47-1.35,1.29.62,1.66.83,3.26,1.84,6.51,3.63,9.6,5.76,4.44,3.06-3.35-3.26.48.53,1.14,1.12,2.36,2.16,3.48,3.31,1.47,1.51,2.98,3.1,4.27,4.75-2.26-2.9-.98-1.51.1.72,5.81,11.92,8.22,25.22,4.72,40.16-8.22,35.15-35.28,60.3-66.54,80.66-36.58,23.81-75.63,44.83-114.6,64.42-74.4,37.39-160.14,68.65-241.96,46.21-36.12-9.9-69.83-30.41-97.92-55.27-14.81-13.11-28.58-27.37-41.48-42.36-4.96-5.76-11.84-14.14-15.12-18.4-3.38-4.39-10.43-14.19-14.87-20.65-42.13-61.44-67.9-123.26-89.98-192.39-45.57-142.67-66.23-292.4-118.59-433.05-27.25-73.18-61.05-152.19-121.96-203.86-32.04-27.18-72.36-49.02-115.69-46.59s-76.35,22.49-100.1,56.16c-21,29.78-28.74,68.44-23.89,104.19,5.37,39.6,27.65,72.38,59.31,96.02,63.26,47.23,152.72,41.3,214.15-5.44,151.09-114.96,101.53-347.18-7.8-473.01-56.55-65.08-135.09-102.98-212.03-138.23-76.6-35.09-151.58-73.12-221.12-120.98C221.34,445.61,109.84,313.66,77.48,150.88c-7.41-37.27-9.51-76.27-6.61-116.07C72.24,16.04,53.89,0,36.06,0,16.09,0,2.63,15.98,1.25,34.81h0Z"/>
  </g>
</svg>