<?xml version="1.0" encoding="utf-8"?>
<!-- Generator: Adobe Illustrator 28.3.0, SVG Export Plug-In . SVG Version: 6.00 Build 0)  -->
<svg version="1.1" id="Camada_1" xmlns="http://www.w3.org/2000/svg" xmlns:xlink="http://www.w3.org/1999/xlink" x="0px" y="0px"
	 viewBox="0 0 1920 250" style="enable-background:new 0 0 1920 250;" xml:space="preserve">
<style type="text/css">
	.st0{clip-path:url(#SVGID_00000147181812588045500030000003041427582356864643_);fill:#3939DA;}
	.st1{clip-path:url(#SVGID_00000147181812588045500030000003041427582356864643_);}
	.st2{fill:#F294D2;}
	.st3{clip-path:url(#SVGID_00000176001074096120073250000013923866085667701890_);fill:#3939DA;}
	.st4{clip-path:url(#SVGID_00000176001074096120073250000013923866085667701890_);}
</style>
<g>
	<g>
		<defs>
			<rect id="SVGID_1_" x="940.2" y="-8.8" width="1079.5" height="268.9"/>
		</defs>
		<clipPath id="SVGID_00000042015276256050353780000013536465970218601091_">
			<use xlink:href="#SVGID_1_"  style="overflow:visible;"/>
		</clipPath>
		
			<rect x="789.6" y="-45.1" style="clip-path:url(#SVGID_00000042015276256050353780000013536465970218601091_);fill:#3939DA;" width="1376.6" height="344.1"/>
		<g style="clip-path:url(#SVGID_00000042015276256050353780000013536465970218601091_);">
			<g>
				<path class="st2" d="M1743.4-256.1c-16.2,41-8.2,87.5,12.2,125.4c9.9,18.4,22.8,35.3,36.9,50.7c13.9,15.1,29.9,28,44.3,42.6
					c14.5,14.7,24.8,32,27,52.9c2,18.7-0.8,40.5-14.6,54.4c-11.5,11.7-30.9,16.5-43.6,3.8c-5-5-7.4-11.8-5.2-18.7
					c1.8-5.6,6.5-11.2,12.6-12.1c15.2-2.4,23.3,18.4,26.1,29.7c4.8,19.7,4.7,40.7,3.9,60.8c-1.7,42-8.8,84.6,0.1,126.2
					c4.3,20.2,12.6,40.4,26.6,55.9c14,15.5,33.6,22.9,54.2,24.1c20.2,1.2,40.8-3.1,60.5-7.6c19.5-4.5,41.2-14.8,44-37.1
					c2.5-20-19.3-39.6-38.2-27.7c-16.5,10.3-13.5,33.4-14.1,50c-1.4,42.8-11.9,85.4-30.8,123.8c-4.6,9.5-9.8,18.7-15.3,27.6
					c-6.4,10.3,9.9,19.8,16.3,9.5c22.9-37,38.5-78.7,45-121.7c1.7-11,2.9-22,3.4-33.1c0.5-9.5-0.4-19.3,0.8-28.8
					c0.6-4.5,1.9-12.3,7.2-12.1c6.5,0.3,8.2,8.6,6.3,13.5c-3.3,8.6-12.4,13-20.7,15.5c-9.7,3-19.8,4.8-29.8,6.6
					c-18.3,3.3-38.8,5.3-56.5-2.1c-17.8-7.5-28.9-24.7-35.3-42.2c-7.1-19.3-9.2-39.7-9.2-60.1c0-42.3,8.2-84.5,3-126.8
					c-2.3-18.5-6.5-38-20.1-51.7c-13.2-13.4-33.7-15.2-47.8-2.1c-14.6,13.5-15.3,35.6-3.1,50.7c12.4,15.3,34.1,20.1,52.2,13
					c42-16.7,49.3-72.1,34.2-109.7c-8.1-20.2-22.9-35.6-38.7-50c-15.4-14-30.5-28.2-43.6-44.4c-26-32.2-43.7-72.5-39.5-114.5
					c1-10,3.7-19.9,7.4-29.3c1.9-4.7-2-10.3-6.6-11.6C1749.6-264.2,1745.3-260.9,1743.4-256.1L1743.4-256.1z"/>
			</g>
		</g>
		<g style="clip-path:url(#SVGID_00000042015276256050353780000013536465970218601091_);">
			<g>
				<path class="st2" d="M882.5,301c42.8,5.2,85-13.5,116.3-41.8c15.7-14.2,29.1-31.1,40.6-48.8c11.4-17.5,20-36.4,30.6-54.4
					c10.3-17.4,23.8-31.8,43-39.5c18.3-7.4,41.3-10.5,59,0.1c13.3,8,22.4,24.5,14.5,39.4c-3.1,5.9-8.4,10.6-15.1,11
					c-5.8,0.4-12.3-1.9-15.9-6.7c-11-14.8,12.2-31,23.1-36.4c16.4-8.2,34.3-13.2,52.2-17.2c36.3-8.2,74.1-11.7,109-25.4
					c37.1-14.6,75.4-43,75.4-86.8c0-22.8-9.3-44.4-19.1-64.5c-8.9-18.1-19.5-39.7-41.5-43.8c-10-1.9-20.3,0.4-27.5,7.9
					c-6.4,6.6-9.5,16.6-6.9,25.6c6.2,21.4,31.8,17.9,48.2,13.6c44.3-11.6,91.1-13.1,136-4.2c10.9,2.2,21.6,4.9,32.2,8.2
					c11.6,3.6,16.6-14.6,5-18.1c-44.4-13.7-91.7-17.8-137.7-11.8c-11.5,1.5-23,3.5-34.3,6.2c-8.1,2-17.5,5.8-26,4.4
					c-5.8-1-7.1-5.5-3.7-10c4.2-5.5,12.1-3.9,17.4-0.9c8.7,4.9,13.5,14.4,17.9,23c5,9.7,9.9,19.5,13.8,29.8
					c7.4,19.6,11.7,41.6,0.9,60.8c-18.2,32.5-58.8,46-92.8,53.8c-36.8,8.4-75,12-110.5,25.7c-18,6.9-37.1,16.3-47.1,33.8
					c-9.8,17.2-4.9,38.8,13.3,47.9c17.5,8.7,37.5,2.8,48.2-13.3c10.5-15.9,9-37.2-2.2-52.3c-27.1-36.5-83-29-115.6-4.3
					c-17.4,13.2-28.4,31.7-38.4,50.8c-9.7,18.5-19.7,36.6-32.2,53.3c-24.4,32.7-58.9,59.6-100.2,65.9c-9.9,1.5-20,1.4-30,0.2
					c-5.1-0.6-9.4,4.8-9.4,9.4C873.1,297.2,877.4,300.4,882.5,301L882.5,301z"/>
			</g>
		</g>
		<g style="clip-path:url(#SVGID_00000042015276256050353780000013536465970218601091_);">
			<g>
				<path class="st2" d="M1933.3,788.6c-10.9-88.6-67.1-164-139.3-213.9c-38.8-26.8-82.1-46.6-126.6-61.8
					c-22.6-7.7-45.7-14.2-68.9-19.9c-23.1-5.6-46.4-10.7-69.1-17.9c-22.1-7-43.4-16.3-62.3-29.9c-17.6-12.7-32.9-29-45-46.9
					c-25.1-37.1-42.1-85.4-27.7-129.7c11.8-36.4,46.4-65.5,86.2-56.8c16.8,3.7,32.6,14,39.1,30.5c5.7,14.6,4.6,32-3.5,45.4
					c-9,14.8-26.6,21.1-43.4,18.3c-20.5-3.5-38.7-16.2-53.4-30.4c-27.7-26.7-48.3-61.6-66.4-95.2c-37.2-69-63.4-143.6-104.9-210.3
					c-20-32.1-43.8-62.4-72.9-86.8c-34.7-29.1-77.5-51.6-124-48.9c-45.9,2.7-86.8,26.9-122.4,54.3c-18.2,14-35.9,28.8-52.7,44.4
					c-16.4,15.2-31.7,33-37.8,54.9c-5.7,20.3-3.5,44.6,11.8,60.4c12.2,12.7,32.8,18.7,49.7,12.9c20.9-7.1,29.1-28.3,26.1-48.9
					c-3.2-22-15.9-41.1-26-60.3C855-133.3,829-228.8,824.1-325.2c-1.2-23.7-1.1-47.5,0.2-71.3c0.7-12.1-18.2-12.1-18.8,0
					c-5.3,97.1,10.3,195.4,45.5,286.1c8.7,22.6,18.6,44.8,29.7,66.3c9.7,18.9,23.7,38.1,26.7,59.7c2.4,17-8.2,31.6-26.3,28.6
					c-19-3.1-27.8-20.6-26.9-38.5c1.1-21.9,15-39.9,30.1-54.6c16.5-16.1,34.5-31,52.7-45.2c34.1-26.7,74.3-51.9,119-52.9
					c44.2-1,84.3,23.2,115.8,52.3c27.9,25.7,50,56.5,69,89.2c39.3,67.8,65.3,142.2,104.2,210.2c9.7,17,20.2,33.6,31.8,49.4
					c12.2,16.5,25.1,32.5,41.3,45.3c16.6,13.2,35.8,23.8,57.3,25.8c19.3,1.8,39.7-5.5,52-20.8c23.5-29.2,18.1-74.3-11.7-97
					c-32.9-25.1-80.3-19-109.7,8.4c-33.7,31.3-41.4,80.3-31,123.5c10.5,43.7,37,85.4,71.8,113.8c37.1,30.3,83,42.8,128.7,53.7
					c46.2,11,91.9,23.6,135.3,43c80.4,35.9,154.4,95,187.9,178.7c7.7,19.2,13.3,39.5,15.8,60c0.6,5,3.9,9.4,9.4,9.4
					C1928.5,798,1933.9,793.7,1933.3,788.6L1933.3,788.6z"/>
			</g>
		</g>
		<g style="clip-path:url(#SVGID_00000042015276256050353780000013536465970218601091_);">
			<g>
				<path class="st2" d="M1851.5,811.8C1921.5,755.2,1955,665,1958.1,577c1.8-51.8-6.1-103.8-19.2-153.9
					c-12.9-49.6-35.2-97.4-42.4-148.3c-6.9-49.1,7-98.5,35.4-138.8c24.9-35.3,65.2-63.3,110.2-57.3c20.5,2.7,39.6,13.4,50.9,30.9
					c10.2,15.7,14.8,36.3,7.4,54.1c-13.4,32.5-61.3,42.6-80.7,10.4c-18.9-31.4-6.6-73.2,5.4-104.6c14.8-38.5,35.7-74.4,57.8-109.1
					c43.8-68.9,94.8-135.2,121.4-213.4c13.6-40,20.5-83.6,13.9-125.6c-6.8-42.9-31.4-77.9-66.6-102.5
					c-33.3-23.2-72.7-36.7-111.2-48.7c-40.3-12.6-94.5-26-125.1,13.4c-11.6,15-13.8,34.4-6,51.7c7.5,16.7,24.2,27,42.6,24.3
					c19.5-2.9,33.6-19.2,43.9-34.7c11.9-17.9,21.5-37.4,33.2-55.5c48.2-74.6,111.6-139.5,184.9-189.6c18.1-12.3,36.8-23.7,55.9-34.3
					c10.6-5.8,1.1-22.1-9.5-16.3c-78.1,42.9-147.8,101.2-203.9,170.5c-14,17.3-27.2,35.2-39.5,53.8c-12.1,18.2-22.3,37.4-33.7,56
					c-8.3,13.6-22.4,34.9-41.2,31.3c-16-3-22.1-24.3-16.6-37.9c7.6-18.7,30.2-27,48.9-27.3c24.6-0.5,48.9,8.6,72,16.1
					c37.8,12.2,77.3,26.6,107.9,52.7c14.9,12.6,27.2,27.8,35.4,45.6c10,21.8,12.9,46.3,12.2,70.1c-1.2,40.6-13,80.5-29.8,117.3
					c-34.5,75.3-87.4,140-128.5,211.5c-19.8,34.4-39.2,72-47.8,111.1c-7.4,33.5-7,76.9,22.4,100.2c30.1,23.9,74.4,11.3,94.5-19.6
					c22.2-34.2,6-80.5-24.6-103.5c-35.7-26.8-86.8-21.7-123.1,1c-38.5,24.1-65.3,65.5-79.2,108.1c-15.8,48.5-9.8,97.2,4.9,145.1
					c15.3,50,32.9,98.6,41.8,150.4c15.9,92.7,6.2,192.7-50.4,270.6c-12.5,17.2-27.4,32.5-43.9,45.9
					C1828.8,806.1,1842.2,819.4,1851.5,811.8L1851.5,811.8z"/>
			</g>
		</g>
		<g style="clip-path:url(#SVGID_00000042015276256050353780000013536465970218601091_);">
			<g>
				<path class="st2" d="M1613.7-75.3c-1.3,29.2-3,58.3-5.9,87.4c-0.6,6.4-1.3,12.8-2.1,19.2c-0.4,3.1-0.8,6.2-1.2,9.4
					c0,0.4-0.1,0.7-0.1,1.1c0,0,0.3-2.1,0.1-0.9c-0.1,0.7-0.2,1.4-0.3,2.1c-0.2,1.6-0.5,3.2-0.7,4.8c-1.6,10.8-3.4,21.5-5.7,32.2
					c-1.9,9-4.2,18-7,26.7c-0.6,1.9-1.3,3.8-2,5.7c-0.3,0.8-0.6,1.7-1,2.5c-0.2,0.5-0.4,0.9-0.6,1.4c-0.1,0.2-0.2,0.4-0.2,0.6
					c-0.5,1.2,0.5-1.2,0.5-1.2c-1.4,3-2.7,6.1-4.4,9c-0.7,1.3-1.5,2.6-2.4,3.9c-0.4,0.6-0.7,1.1-1.1,1.6c-0.2,0.3-0.4,0.5-0.6,0.8
					c-0.5,0.8,1.3-1.8,1.1-1.4c-0.1,0.2-0.3,0.4-0.5,0.6c-0.8,1-1.6,1.9-2.5,2.8c-0.4,0.4-0.9,0.9-1.3,1.3c-0.2,0.2-0.4,0.4-0.6,0.5
					c-1.3,1.2,1.1-0.7,1.1-0.8c0,0.4-2.4,1.6-2.8,1.8c-0.4,0.2-0.9,0.4-1.3,0.7c-1.1,0.6,2.7-1,1.5-0.6c-0.3,0.1-0.5,0.2-0.8,0.3
					c-0.5,0.2-1,0.3-1.5,0.4c-0.6,0.1-2.6,0.4-0.4,0.1c2.2-0.3-0.3,0-1,0c-0.7,0-1.5-0.1-2.2-0.1c-0.6,0,2.9,0.5,1.3,0.2
					c-0.3-0.1-0.7-0.1-1-0.2c-0.8-0.2-1.7-0.4-2.5-0.6c-0.7-0.2-1.4-0.5-2.1-0.8c-1.6-0.6,1.5,0.7,1,0.4c-0.4-0.2-0.8-0.4-1.3-0.6
					c-1.6-0.8-3.2-1.7-4.7-2.7c-0.7-0.5-1.5-1-2.2-1.5c-0.4-0.3-0.9-0.6-1.3-0.9c-0.2-0.1-0.4-0.3-0.5-0.4c-1.1-0.8,0.8,0.6,0.9,0.7
					c-3-2.9-6.3-5.4-9.2-8.4c-1.5-1.6-3-3.3-4.5-5c-0.7-0.8-1.3-1.6-2-2.4c-0.3-0.4-0.7-0.8-1-1.2c-0.7-0.8,0.9,1.1,0.8,1
					c-0.3-0.4-0.5-0.7-0.8-1.1c-5.4-7.1-10.1-14.8-13.8-22.9c-0.5-1-0.9-2-1.3-3c-0.1-0.2,0.9,2.3,0.5,1.3c-0.1-0.2-0.2-0.5-0.3-0.7
					c-0.2-0.5-0.4-1.1-0.6-1.6c-0.7-1.9-1.4-3.8-2-5.8c-0.5-1.8-1-3.7-1.4-5.5c-0.2-0.8-0.3-1.6-0.4-2.5c-0.1-0.7,0.3,2.9,0.1,1.1
					c0-0.5-0.1-0.9-0.1-1.4c-0.1-1.6-0.2-3.2-0.1-4.8c0-0.4,0.1-0.7,0.1-1.1c0.1-1.5-0.5,2.7-0.2,1.3c0.2-0.8,0.3-1.5,0.5-2.3
					c0.1-0.2,0.7-1.7,0.6-1.8c0.1,0.2-1.3,2.7-0.5,1.3c0.2-0.3,0.3-0.6,0.5-0.9c0.3-0.5,0.6-0.9,0.9-1.4c0.5-0.9-1.9,2.1-1.1,1.4
					c0.2-0.2,0.3-0.4,0.5-0.5c0.6-0.6,1.3-1.2,2-1.8c0.7-0.7-2.6,1.8-0.8,0.7c0.4-0.3,0.9-0.6,1.3-0.9c0.9-0.5,1.7-1,2.6-1.4
					c0.2-0.1,0.5-0.2,0.7-0.3c1.1-0.5-2.8,1.1-1.4,0.6c0.5-0.2,1.1-0.4,1.6-0.6c2.3-0.8,4.7-1.4,7.1-1.9c1.3-0.3,2.7-0.5,4.1-0.7
					c1.6-0.3-2.1,0.2-1.4,0.2c0.4,0,0.8-0.1,1.2-0.1c0.7-0.1,1.5-0.2,2.2-0.2c6.5-0.6,13.1-0.5,19.7-0.1c3.7,0.2,7.3,0.6,11,1
					c0.4,0.1,0.9,0.1,1.3,0.2c1.1,0.1-1.8-0.3-1.6-0.2c0.3,0,0.6,0.1,0.9,0.1c1,0.1,2,0.3,2.9,0.4c2,0.3,4,0.6,6,1
					c8.3,1.5,16.5,3.5,24.6,5.8c8.7,2.5,17.3,5.4,25.8,8.8c1.1,0.4,2.2,0.9,3.3,1.3c0.5,0.2,1,0.4,1.5,0.6c1,0.4-1.3-0.5-1.2-0.5
					c0.3,0.2,0.7,0.3,1,0.4c2.2,0.9,4.3,1.9,6.5,2.9c4.3,2,8.5,4,12.6,6.2c8.4,4.4,16.6,9.4,24.4,14.8c2,1.4,3.9,2.8,5.8,4.2
					c0.4,0.3,0.9,0.7,1.3,1c0.2,0.2,0.4,0.3,0.7,0.5c0.9,0.6-1-0.8-0.9-0.7c0.9,0.8,1.9,1.5,2.8,2.2c3.7,3,7.3,6.1,10.8,9.4
					c3.4,3.2,6.6,6.5,9.7,9.9c1.6,1.7,3.1,3.5,4.6,5.3c0.7,0.8,1.4,1.7,2,2.5c1.1,1.4-1.3-1.7-0.3-0.3c0.4,0.6,0.9,1.1,1.3,1.7
					c2.7,3.7,5.3,7.5,7.6,11.4c1.3,2.1,2.5,4.3,3.6,6.6c0.7,1.3,1.3,2.6,2,3.9c0.3,0.7,0.6,1.3,0.9,2c0.1,0.3,0.3,0.7,0.4,1
					c0.1,0.3,1,2.2,0.3,0.8c-0.6-1.3,0.3,0.8,0.4,1.1c0.3,0.7,0.5,1.3,0.8,2c0.5,1.4,1,2.9,1.5,4.3c1,2.8,1.8,5.7,2.5,8.6
					c0.7,2.8,1.4,5.7,1.9,8.6c0.2,1.3,0.5,2.6,0.7,4c0.1,0.7,0.2,1.3,0.3,2c0,0-0.3-2.2-0.1-1c0,0.4,0.1,0.9,0.2,1.3
					c1.3,11.3,1.2,22.7,0.2,33.9c-0.3,2.8-0.6,5.7-0.9,8.5c0,0.3-0.1,0.7-0.1,1c-0.1,1.1,0.2-1.1,0.1-1.1c-0.1,0.6-0.2,1.3-0.3,1.9
					c-0.2,1.5-0.4,3-0.7,4.5c-0.9,5.5-1.9,10.9-3,16.3c-2.2,10.7-4.8,21.4-7.2,32c-4.5,19.6-9.1,40.1-7.9,60.4
					c1.1,18,7.3,34.9,19.7,48.3c6.6,7.1,14.8,12.9,23.5,17.2c11.6,5.6,24,9.1,36.7,10.9c17.7,2.6,35.5,2.8,53.3,1.6
					c24.4-1.7,48.7-5.7,72.6-10.7c14.3-3,28.5-6.5,42.6-10.3c5.1-1.4,8.7-7.2,7-12.4c-1.7-5.2-6.9-8.5-12.4-7
					c-27.2,7.3-54.8,13.5-82.8,17.5c-0.7,0.1-1.4,0.2-2,0.3c-2.4,0.3,1.5-0.2-0.3,0c-1.4,0.2-2.8,0.4-4.3,0.5
					c-2.8,0.3-5.5,0.6-8.3,0.9c-5.3,0.5-10.6,1-15.9,1.3c-9.1,0.5-18.3,0.7-27.4,0.3c-4-0.2-8-0.4-12-0.8c-0.9-0.1-1.9-0.2-2.8-0.3
					c-0.4,0-0.9-0.1-1.3-0.2c-0.2,0-0.4-0.1-0.6-0.1c-1.4-0.2,1.4,0.2,1.4,0.2c-1.8-0.3-3.7-0.5-5.5-0.8c-6.3-1.1-12.5-2.5-18.6-4.5
					c-1.4-0.4-2.7-0.9-4-1.4c-0.6-0.2-1.3-0.5-1.9-0.8c-0.3-0.1-0.6-0.2-0.9-0.4c-1.2-0.5,2.7,1.2,1.1,0.5c-2.4-1.1-4.8-2.2-7.1-3.4
					c-2.1-1.1-4.2-2.4-6.1-3.7c-0.9-0.6-1.9-1.3-2.8-2c-1.8-1.3,2.1,1.7,0.5,0.4c-0.4-0.3-0.9-0.7-1.3-1c-3.2-2.7-6.1-5.6-8.8-8.8
					c-0.2-0.2-0.3-0.4-0.5-0.6c-0.7-0.8,0.8,1.1,0.8,1c-0.1-0.2-0.3-0.4-0.5-0.6c-0.7-1-1.4-2-2.1-3c-1.2-1.9-2.3-3.8-3.3-5.8
					c-0.5-1-0.9-2-1.4-3c-0.1-0.2,0.9,2.2,0.5,1.2c-0.1-0.2-0.2-0.5-0.3-0.7c-0.2-0.5-0.4-1.1-0.6-1.6c-0.7-2-1.4-4.1-1.9-6.2
					c-0.5-2.1-1-4.3-1.3-6.4c0-0.3-0.1-0.5-0.1-0.8c-0.3-1.6,0.1,1.1,0.2,1.2c0-0.5-0.1-1-0.2-1.5c-0.1-1.1-0.2-2.2-0.3-3.3
					c-0.3-4.7-0.3-9.4,0-14.1c0.1-2.4,0.3-4.8,0.6-7.2c0.1-1.1,0.3-2.2,0.4-3.4c0.2-1.8-0.3,2.4,0,0.1c0.1-0.7,0.2-1.3,0.3-2
					c0.8-5,1.7-10.1,2.7-15.1c4.4-21.7,10.4-43.1,13.7-65c3.7-24.2,4.6-48.9-1.7-72.8c-5.7-21.9-17.3-41.7-32.3-58.5
					c-13.2-14.8-29.1-27.2-45.9-37.5c-16.8-10.3-35-18.5-53.6-25c-17-5.9-34.6-10-52.4-12.3c-14-1.8-28.3-2.3-42.3,0.3
					c-10.4,2-22.4,6.9-27,17.1c-7.5,16.4,0.2,36.1,8.1,50.9c8.8,16.6,21.3,32.5,37.1,43c6.7,4.4,14.7,7.9,22.9,7.7
					c7.2-0.1,13.5-3,18.9-7.5c10.9-9,16.7-24.1,21-37.1c6.4-19.5,10-39.9,13-60.2c4-27.5,6.5-55.1,8.3-82.8
					c1-14.9,1.8-29.7,2.4-44.6c0.2-5.3-4.8-10.3-10.1-10.1C1618.1-85.1,1614-81,1613.7-75.3L1613.7-75.3z"/>
			</g>
		</g>
		<g style="clip-path:url(#SVGID_00000042015276256050353780000013536465970218601091_);">
			<g>
				<path class="st2" d="M1577.4,530.3c-15.4-25.8-30.3-51.9-44.1-78.6c-5.9-11.5-11.7-23.1-17.1-34.8c-1.3-2.8-2.5-5.5-3.7-8.3
					c-0.5-1.2-1.1-2.5-1.6-3.7c-0.2-0.5-0.4-1-0.6-1.5c-0.2-0.5-0.4-1-0.6-1.5c0.5,1.2,0.5,1.3,0.1,0.2c-2-4.8-3.9-9.6-5.8-14.5
					c-3.2-8.6-6.1-17.4-8.3-26.3c-0.9-3.8-1.6-7.6-2.2-11.5c-0.3-1.6,0.2,1.2,0.2,1.2c0-0.5-0.1-1-0.2-1.4c-0.1-0.8-0.2-1.5-0.2-2.3
					c-0.1-1.6-0.2-3.2-0.2-4.8c0-1.5,0-3,0.2-4.5c0.1-1.2,0.9-3-0.1,0.4c0.2-0.7,0.2-1.5,0.4-2.2c0.2-1.1,0.5-2.2,0.9-3.3
					c0.2-0.5,0.4-1,0.6-1.5c-0.9,3.4-0.7,1.5-0.1,0.4c0.3-0.5,0.5-1,0.9-1.4c0.7-1.1,1.9-1.7-0.4,0.5c0.6-0.5,2.1-1.8,2.4-2.4
					c-0.8,1.4-2,1.4-1.1,0.9c0.3-0.2,0.7-0.5,1-0.7c0.6-0.4,1.2-0.7,1.8-1c2.1-1.1-2.3,0.8-0.1,0c0.8-0.3,1.7-0.6,2.5-0.8
					c0.8-0.2,1.6-0.4,2.5-0.5c0.4-0.1,0.8-0.1,1.2-0.2c1.9-0.3-2.7,0.2-0.8,0.1c1.9-0.1,3.7-0.3,5.6-0.3c1.8,0,3.6,0.1,5.4,0.3
					c0.9,0.1,1.9,0.2,2.8,0.3c-3.5-0.2,0.4,0.1,1.3,0.2c4.4,0.8,8.8,1.9,13,3.2c2,0.6,4,1.3,6,2c1,0.4,2,0.7,3,1.1
					c0.6,0.2,1.2,0.5,1.8,0.7c1.6,0.7,0.8,0.7-0.1,0c0.7,0.7,2.3,1,3.2,1.4c1.1,0.5,2.1,1,3.1,1.5c2.1,1,4.1,2.1,6.1,3.2
					c3.6,2.1,7.2,4.3,10.6,6.8c0.5,0.3,0.9,0.7,1.4,1c-2.3-1.6-1.1-0.8-0.5-0.4c0.8,0.6,1.5,1.3,2.3,1.9c1.4,1.3,2.8,2.6,4.1,3.9
					c0.6,0.6,1.1,1.2,1.6,1.8c0.3,0.3,0.5,0.6,0.8,0.9c0.8,0.9-1.6-2.2-0.6-0.8c0.9,1.3,1.8,2.6,2.6,4.1c0.2,0.4,0.4,0.7,0.5,1.1
					c0.8,1.5-0.8-2.3-0.5-1.1c0.2,0.7,0.5,1.3,0.7,2c0.1,0.5,0.1,1.3,0.4,1.8c-1.2-2.3-0.2-2.5-0.2-1.6c0,0.5,0.1,1,0,1.4
					c0,0.4-0.1,0.9-0.1,1.3c-0.3-2.9,0.4-2.5,0.1-1.1c-0.3,1-0.6,2-0.9,3c-0.2,0.7,1.4-2.8,0.2-0.6c-0.3,0.5-0.5,1-0.8,1.6
					c-0.6,1.1-1.4,2.1-2.1,3.2c-1.3,1.8,1.7-2.1,0.2-0.3c-0.4,0.5-0.8,1-1.2,1.5c-1,1.1-2,2.2-3.1,3.2c-1.1,1.1-2.3,2.2-3.5,3.2
					c-0.6,0.5-1.2,1-1.8,1.5c-0.2,0.2-0.5,0.4-0.7,0.6c-2,1.6,1.6-1.1,0.2-0.1c-2.9,2.1-5.8,4.2-8.8,6.1
					c-7.1,4.5-14.6,8.3-22.2,11.8c-1.1,0.5-2.1,0.9-3.2,1.4c-1,0.4-1.7,0.1,0.3-0.1c-0.6,0.1-1.3,0.5-1.8,0.7
					c-2.2,0.9-4.5,1.8-6.8,2.6c-4.5,1.7-9,3.2-13.6,4.7c-9.8,3.1-19.8,5.6-30,7.6c-2.7,0.5-5.3,1-8,1.4c-1.2,0.2-2.4,0.4-3.7,0.6
					c-0.5,0.1-1,0.1-1.5,0.2c-0.5,0.1-1,0.1-1.5,0.2c1.4-0.2,1.6-0.2,0.5-0.1c-5.2,0.7-10.4,1.2-15.7,1.6
					c-10.8,0.7-21.6,0.8-32.3-0.1c-2.7-0.2-5.5-0.5-8.2-0.8c-0.5-0.1-1-0.1-1.5-0.2c-2.6-0.3,2.3,0.4-0.3,0
					c-1.5-0.2-2.9-0.4-4.4-0.7c-5.1-0.9-10.2-1.9-15.2-3.3c-5.2-1.4-10.3-3-15.4-5c-1.1-0.4-2.3-0.8-3.4-1.4
					c2.5,1.3-1.1-0.5-1.6-0.7c-2.4-1.1-4.8-2.3-7.2-3.5c-4.7-2.5-9.2-5.2-13.5-8.3c-1-0.7-1.9-1.4-2.8-2.1c-0.1-0.1-1.9-1.5-0.6-0.5
					c1.3,1.1-0.5-0.4-0.6-0.5c-2-1.6-3.9-3.2-5.7-4.9c-3.6-3.3-7.1-6.8-10.3-10.5c-1.4-1.7-2.9-3.3-4.2-5.1
					c-0.1-0.2-0.3-0.3-0.4-0.5c-0.7-0.9-0.5-0.7,0.4,0.5c-0.2-0.2-0.6-0.9-0.8-1c-0.8-1-1.6-2.1-2.3-3.2c-5.4-7.6-10.1-15.7-14.3-24
					c-2.1-4.2-4.2-8.6-6.1-12.9c-0.4-1-0.9-2-1.3-3c-0.1-0.2-0.9-2.2-0.3-0.6c0.6,1.6-0.2-0.4-0.2-0.6c-0.9-2.2-1.8-4.4-2.7-6.6
					c-6.6-16.5-12.2-33.4-18.9-49.9c-6.5-15.7-13.9-31.1-25.2-43.9c-9.7-10.9-22.5-19-36.7-22.5c-23.1-5.7-46.7,0.3-67.8,10.1
					c-15.4,7.1-29.8,16.5-43.3,26.8c-19.5,14.8-37.6,31.2-54.9,48.6c-10.3,10.4-20.4,21.1-30.1,32.1c-3.5,3.9-4.2,10.4,0,14.3
					c3.8,3.5,10.5,4.2,14.3,0c18.9-21.1,38.7-41.6,60-60.3c4.3-3.8,8.7-7.5,13.2-11.1c2-1.6,4-3.2,6.1-4.8c1.2-1-1.9,1.5-0.1,0
					c0.6-0.4,1.1-0.9,1.7-1.3c1.1-0.8,2.2-1.7,3.3-2.5c7.4-5.5,15.1-10.6,23-15.3c6.6-3.9,13.3-7.4,20.3-10.5
					c2.7-1.2-1.9,0.8,0.4-0.2c0.7-0.3,1.4-0.6,2.1-0.9c1.5-0.6,3.1-1.2,4.6-1.7c2.9-1,5.8-1.9,8.8-2.7c2.7-0.7,5.5-1.3,8.3-1.8
					c0.7-0.1,1.3-0.2,2-0.3c2.6-0.4-2.7,0.3-0.4,0c1.3-0.1,2.5-0.3,3.8-0.4c4.7-0.4,9.3-0.2,14,0.3c2.1,0.2-2.9-0.4-0.9-0.1
					c0.5,0.1,1.1,0.2,1.6,0.3c1.1,0.2,2.2,0.4,3.2,0.6c2,0.4,3.9,1,5.8,1.6c0.8,0.3,1.7,0.6,2.5,0.9c0.5,0.2,1,0.4,1.5,0.6
					c1.5,0.6-1-0.3-1-0.4c0,0.3,4.9,2.4,5.5,2.7c1.5,0.8,2.9,1.7,4.3,2.6c0.8,0.5,1.5,1,2.2,1.6c1.1,0.8,0,0.7-0.7-0.5
					c0.2,0.4,1.2,0.9,1.5,1.3c2.7,2.3,5.3,4.8,7.7,7.5c0.6,0.7,1.2,1.4,1.8,2.1c0.3,0.3,0.5,0.7,0.8,1c1.2,1.4-0.6-0.5-0.5-0.6
					c-0.1,0.2,3.2,4.5,3.5,4.8c4.4,6.6,8.1,13.6,11.4,20.8c0.9,1.9,1.7,3.9,2.6,5.8c0.8,1.9-0.7-1.8-0.2-0.5
					c0.2,0.5,0.4,0.9,0.6,1.4c0.5,1.1,0.9,2.2,1.3,3.3c1.6,4.1,3.2,8.2,4.8,12.4c3.2,8.6,6.3,17.3,9.6,25.9
					c7,18.3,14.6,36.6,25.1,53.2c11.1,17.6,25.3,33,42.7,44.6c18.4,12.2,40,19.6,61.8,22.8c43.4,6.4,88.9-0.1,129.6-15.9
					c17.1-6.6,33.5-14.7,48-26c9.7-7.6,19.7-18.2,20.3-31.3c0.8-17-15.6-30.2-28.4-38.3c-16.3-10.3-35.4-17.3-54.6-19.1
					c-14.7-1.4-32.2,1.9-39.2,16.5c-6.5,13.5-4.1,29.5-0.8,43.5c4.9,20.8,13.5,40.7,22.3,60.1c11.5,25.1,24.5,49.5,38,73.6
					c7.7,13.6,15.5,27.2,23.5,40.6c2.7,4.5,9.2,6.6,13.8,3.6C1578.3,541.1,1580.2,535.1,1577.4,530.3L1577.4,530.3z"/>
			</g>
		</g>
		<g style="clip-path:url(#SVGID_00000042015276256050353780000013536465970218601091_);">
			<g>
				<path class="st2" d="M635.6,179.2c29.2,1.3,58.3,3,87.4,5.9c6.4,0.6,12.8,1.3,19.2,2.1c3.1,0.4,6.2,0.8,9.4,1.2
					c0.4,0,0.7,0.1,1.1,0.1c0,0-2.1-0.3-0.9-0.1c0.7,0.1,1.4,0.2,2.1,0.3c1.6,0.2,3.2,0.5,4.8,0.7c10.8,1.6,21.5,3.4,32.2,5.7
					c9,1.9,18,4.2,26.7,7c1.9,0.6,3.8,1.3,5.7,2c0.8,0.3,1.7,0.6,2.5,1c0.5,0.2,0.9,0.4,1.4,0.6c0.2,0.1,0.4,0.2,0.6,0.2
					c1.2,0.5-1.2-0.5-1.2-0.5c3,1.4,6.1,2.7,9,4.4c1.3,0.7,2.6,1.5,3.9,2.4c0.6,0.4,1.1,0.7,1.6,1.1c0.3,0.2,0.5,0.4,0.8,0.6
					c0.8,0.5-1.8-1.3-1.4-1.1c0.2,0.1,0.4,0.3,0.6,0.5c1,0.8,1.9,1.6,2.8,2.5c0.4,0.4,0.9,0.9,1.3,1.3c0.2,0.2,0.4,0.4,0.5,0.6
					c1.2,1.3-0.7-1.1-0.8-1.1c0.4,0,1.6,2.4,1.8,2.8c0.2,0.4,0.4,0.9,0.7,1.3c0.6,1.1-1-2.7-0.6-1.5c0.1,0.3,0.2,0.5,0.3,0.8
					c0.2,0.5,0.3,1,0.4,1.5c0.1,0.6,0.4,2.6,0.1,0.4c-0.3-2.2,0,0.3,0,1c0,0.7-0.1,1.5-0.1,2.2c0,0.6,0.5-2.9,0.2-1.3
					c-0.1,0.3-0.1,0.7-0.2,1c-0.2,0.8-0.4,1.7-0.6,2.5c-0.2,0.7-0.5,1.4-0.8,2.1c-0.6,1.6,0.7-1.5,0.4-1c-0.2,0.4-0.4,0.8-0.6,1.3
					c-0.8,1.6-1.7,3.2-2.7,4.7c-0.5,0.7-1,1.5-1.5,2.2c-0.3,0.4-0.6,0.9-0.9,1.3c-0.1,0.2-0.3,0.4-0.4,0.5c-0.8,1.1,0.6-0.8,0.7-0.9
					c-2.9,3-5.4,6.3-8.4,9.2c-1.6,1.5-3.3,3-5,4.5c-0.8,0.7-1.6,1.3-2.4,2c-0.4,0.3-0.8,0.7-1.2,1c-0.8,0.7,1.1-0.9,1-0.8
					c-0.4,0.3-0.7,0.5-1.1,0.8c-7.1,5.4-14.8,10.1-22.9,13.8c-1,0.5-2,0.9-3,1.3c-0.2,0.1,2.3-0.9,1.3-0.5c-0.2,0.1-0.5,0.2-0.7,0.3
					c-0.5,0.2-1.1,0.4-1.6,0.6c-1.9,0.7-3.8,1.4-5.8,2c-1.8,0.5-3.7,1-5.5,1.4c-0.8,0.2-1.6,0.3-2.5,0.4c-0.7,0.1,2.9-0.3,1.1-0.1
					c-0.5,0-0.9,0.1-1.4,0.1c-1.6,0.1-3.2,0.2-4.8,0.1c-0.4,0-0.7-0.1-1.1-0.1c-1.5-0.1,2.7,0.5,1.3,0.2c-0.8-0.2-1.5-0.3-2.3-0.5
					c-0.2-0.1-1.7-0.7-1.8-0.6c0.2-0.1,2.7,1.3,1.3,0.5c-0.3-0.2-0.6-0.3-0.9-0.5c-0.5-0.3-0.9-0.6-1.4-0.9
					c-0.9-0.5,2.1,1.9,1.4,1.1c-0.2-0.2-0.4-0.3-0.5-0.5c-0.6-0.6-1.2-1.3-1.8-2c-0.7-0.7,1.8,2.6,0.7,0.8c-0.3-0.4-0.6-0.9-0.9-1.3
					c-0.5-0.9-1-1.7-1.4-2.6c-0.1-0.2-0.2-0.5-0.3-0.7c-0.5-1.1,1.1,2.8,0.6,1.4c-0.2-0.5-0.4-1.1-0.6-1.6c-0.8-2.3-1.4-4.7-1.9-7.1
					c-0.3-1.3-0.5-2.7-0.7-4.1c-0.3-1.6,0.2,2.1,0.2,1.4c0-0.4-0.1-0.8-0.1-1.2c-0.1-0.7-0.2-1.5-0.2-2.2
					c-0.6-6.5-0.5-13.1-0.1-19.7c0.2-3.7,0.6-7.3,1-11c0.1-0.4,0.1-0.9,0.2-1.3c0.1-1.1-0.3,1.8-0.2,1.6c0-0.3,0.1-0.6,0.1-0.9
					c0.1-1,0.3-2,0.4-2.9c0.3-2,0.6-4,1-6c1.5-8.3,3.5-16.5,5.8-24.6c2.5-8.7,5.4-17.3,8.8-25.8c0.4-1.1,0.9-2.2,1.3-3.3
					c0.2-0.5,0.4-1,0.6-1.5c0.4-1-0.5,1.3-0.5,1.2c0.2-0.3,0.3-0.7,0.4-1c0.9-2.2,1.9-4.3,2.9-6.5c2-4.3,4-8.5,6.2-12.6
					c4.4-8.4,9.4-16.6,14.8-24.4c1.4-2,2.8-3.9,4.2-5.8c0.3-0.4,0.7-0.9,1-1.3c0.2-0.2,0.3-0.4,0.5-0.7c0.6-0.9-0.8,1-0.7,0.9
					c0.8-0.9,1.5-1.9,2.2-2.8c3-3.7,6.1-7.3,9.4-10.8c3.2-3.4,6.5-6.6,9.9-9.7c1.7-1.6,3.5-3.1,5.3-4.6c0.8-0.7,1.7-1.4,2.5-2
					c1.4-1.1-1.7,1.3-0.3,0.3c0.6-0.4,1.1-0.9,1.7-1.3c3.7-2.7,7.5-5.3,11.4-7.6c2.1-1.3,4.3-2.5,6.6-3.6c1.3-0.7,2.6-1.3,3.9-2
					c0.7-0.3,1.3-0.6,2-0.9c0.3-0.1,0.7-0.3,1-0.4c0.3-0.1,2.2-1,0.8-0.3c-1.3,0.6,0.8-0.3,1.1-0.4c0.7-0.3,1.3-0.5,2-0.8
					c1.4-0.5,2.9-1,4.3-1.5c2.8-1,5.7-1.8,8.6-2.5c2.8-0.7,5.7-1.4,8.6-1.9c1.3-0.2,2.6-0.5,4-0.7c0.7-0.1,1.3-0.2,2-0.3
					c0,0-2.2,0.3-1,0.1c0.4,0,0.9-0.1,1.3-0.2c11.3-1.3,22.7-1.2,33.9-0.2c2.8,0.3,5.7,0.6,8.5,0.9c0.3,0,0.7,0.1,1,0.1
					c1.1,0.1-1.1-0.2-1.1-0.1c0.6,0.1,1.3,0.2,1.9,0.3c1.5,0.2,3,0.4,4.5,0.7c5.5,0.9,10.9,1.9,16.3,3c10.7,2.2,21.4,4.8,32,7.2
					c19.6,4.5,40.1,9.1,60.4,7.9c18-1.1,34.9-7.3,48.3-19.7c7.1-6.6,12.9-14.8,17.2-23.5c5.6-11.6,9.1-24,10.9-36.7
					c2.6-17.7,2.8-35.5,1.6-53.3c-1.7-24.4-5.7-48.7-10.7-72.6c-3-14.3-6.5-28.5-10.3-42.6c-1.4-5.1-7.2-8.7-12.4-7
					c-5.2,1.7-8.5,6.9-7,12.4c7.3,27.2,13.5,54.8,17.5,82.8c0.1,0.7,0.2,1.4,0.3,2c0.3,2.4-0.2-1.5,0,0.3c0.2,1.4,0.4,2.8,0.5,4.3
					c0.3,2.8,0.6,5.5,0.9,8.3c0.5,5.3,1,10.6,1.3,15.9c0.5,9.1,0.7,18.3,0.3,27.4c-0.2,4-0.4,8-0.8,12c-0.1,0.9-0.2,1.9-0.3,2.8
					c0,0.4-0.1,0.9-0.2,1.3c0,0.2-0.1,0.4-0.1,0.6c-0.2,1.4,0.2-1.4,0.2-1.4c-0.3,1.8-0.5,3.7-0.8,5.5c-1.1,6.3-2.5,12.5-4.5,18.6
					c-0.4,1.4-0.9,2.7-1.4,4c-0.2,0.6-0.5,1.3-0.8,1.9c-0.1,0.3-0.2,0.6-0.4,0.9c-0.5,1.2,1.2-2.7,0.5-1.1c-1.1,2.4-2.2,4.8-3.4,7.1
					c-1.1,2.1-2.4,4.2-3.7,6.1c-0.6,0.9-1.3,1.9-2,2.8c-1.3,1.8,1.7-2.1,0.4-0.5c-0.3,0.4-0.7,0.9-1,1.3c-2.7,3.2-5.6,6.1-8.8,8.8
					c-0.2,0.2-0.4,0.3-0.6,0.5c-0.8,0.7,1.1-0.8,1-0.8c-0.2,0.1-0.4,0.3-0.6,0.5c-1,0.7-2,1.4-3,2.1c-1.9,1.2-3.8,2.3-5.8,3.3
					c-1,0.5-2,0.9-3,1.4c-0.2,0.1,2.2-0.9,1.2-0.5c-0.2,0.1-0.5,0.2-0.7,0.3c-0.5,0.2-1.1,0.4-1.6,0.6c-2,0.7-4.1,1.4-6.2,1.9
					c-2.1,0.5-4.3,1-6.4,1.3c-0.3,0-0.5,0.1-0.8,0.1c-1.6,0.3,1.1-0.1,1.2-0.2c-0.5,0-1,0.1-1.5,0.2c-1.1,0.1-2.2,0.2-3.3,0.3
					c-4.7,0.3-9.4,0.3-14.1,0c-2.4-0.1-4.8-0.3-7.2-0.6c-1.1-0.1-2.2-0.3-3.4-0.4c-1.8-0.2,2.4,0.3,0.1,0c-0.7-0.1-1.3-0.2-2-0.3
					c-5-0.8-10.1-1.7-15.1-2.7c-21.7-4.4-43.1-10.4-65-13.7c-24.2-3.7-48.9-4.6-72.8,1.7c-21.9,5.7-41.7,17.3-58.5,32.3
					c-14.8,13.2-27.2,29.1-37.5,45.9c-10.3,16.8-18.5,35-25,53.6c-5.9,17-10,34.6-12.3,52.4c-1.8,14-2.3,28.3,0.3,42.3
					c2,10.4,6.9,22.4,17.1,27c16.4,7.5,36.1-0.2,50.9-8.1c16.6-8.8,32.5-21.3,43-37.1c4.4-6.7,7.9-14.7,7.7-22.9
					c-0.1-7.2-3-13.5-7.5-18.9c-9-10.9-24.1-16.7-37.1-21c-19.5-6.4-39.9-10-60.2-13c-27.5-4-55.1-6.5-82.8-8.3
					c-14.9-1-29.7-1.8-44.6-2.4c-5.3-0.2-10.3,4.8-10.1,10.1C625.8,174.8,630,179,635.6,179.2L635.6,179.2z"/>
			</g>
		</g>
	</g>
	<g>
		<defs>
			
				<rect id="SVGID_00000004507518845996119410000000752924635596356740_" x="-138.8" y="-8.8" transform="matrix(-1 -4.489621e-11 4.489621e-11 -1 801.9086 251.3309)" width="1079.5" height="268.9"/>
		</defs>
		<clipPath id="SVGID_00000052095459587522536760000007160113773730909841_">
			<use xlink:href="#SVGID_00000004507518845996119410000000752924635596356740_"  style="overflow:visible;"/>
		</clipPath>
		
			<rect x="-285.3" y="-45.1" transform="matrix(-1 -4.489754e-11 4.489754e-11 -1 805.9417 254.0195)" style="clip-path:url(#SVGID_00000052095459587522536760000007160113773730909841_);fill:#3939DA;" width="1376.6" height="344.1"/>
		<g style="clip-path:url(#SVGID_00000052095459587522536760000007160113773730909841_);">
			<g>
				<path class="st2" d="M119.4-251.1c15.7,39.9,6.3,83.9-15.3,119.7c-10.6,17.6-23.9,33.3-38.4,47.9C51.1-69,34.3-56.3,21.2-40.1
					C7.1-22.8-0.8-2.5-2.1,19.8c-1.2,21.1,3.6,43.4,17.3,60c12.7,15.2,34,24.4,53.6,18.8C86.7,93.4,102,76.4,99.9,57
					c-2-18.1-17.5-34.5-36.6-32.9c-19.1,1.7-30.9,18.3-37.1,35c-7,18.8-7.7,40.6-7.5,60.5c0.2,21.2,2.2,42.2,3.5,63.3
					c2.4,38.6,3.7,85-22.2,116.9C-12.5,315-30.2,321-49.5,321c-9.8,0-19.5-1.2-29.1-3c-9.9-1.8-20.1-3.6-29.8-6.7
					c-8.1-2.6-16.8-7.1-19.9-15.6c-1.8-4.8,0.3-14,7-13.3c4.9,0.5,6.1,8.3,6.6,12.7c1,9.6,0.3,19.4,0.8,29
					c2.4,43.8,13.7,86.9,33.1,126.3c4.6,9.5,9.8,18.7,15.3,27.6c6.4,10.3,22.7,0.8,16.3-9.5C-71.9,432-86.9,390.8-92.8,348
					c-1.4-10.2-2.2-20.5-2.5-30.7c-0.3-9.7,0.3-19.4-1.4-29c-1.5-8.2-5.4-16.4-12.6-20.9c-8.7-5.4-19.4-4.2-27.4,1.9
					c-18.7,14.4-11,39.7,5.7,51.9c8.5,6.2,19,9.1,29.1,11.4c9.6,2.1,19.2,4.1,28.9,5.4c20.3,2.8,41.3,3.2,60.4-5.2
					c19-8.3,32.4-25.1,40.7-43.7c17.5-39.3,14.6-82.5,11.6-124.3c-1.5-21-3-42.1-1.9-63.2c0.9-16.8,2.6-36.8,13.6-50.5
					c4-4.9,9.7-9.1,16.3-8.1c6.3,0.9,11.1,6.9,12.8,12.7C85,71.3,67.3,82.8,53.4,81.3c-19.1-2.2-31-19.9-34.9-37.2
					c-4.4-19.2-1.8-41,7.7-58.3c9.7-17.9,26-30.9,40.7-44.5c15.5-14.2,29.8-29.6,42.3-46.6c25.2-34.3,41.3-77,36-120
					c-1.3-10.6-3.7-20.9-7.6-30.8c-1.9-4.7-6.3-8-11.6-6.6C121.4-261.5,117.5-255.9,119.4-251.1L119.4-251.1z"/>
			</g>
		</g>
		<g style="clip-path:url(#SVGID_00000052095459587522536760000007160113773730909841_);">
			<g>
				<path class="st2" d="M998.4,282.2c-42,5.1-81.8-14.5-110.9-43.8c-14.5-14.6-26.5-31.3-36.9-48.9c-10.6-17.8-18.6-37.3-30.7-54.2
					c-12.8-18-29.9-31-50.9-38.3c-21.1-7.3-45.4-8.6-65.8,1.4c-16.9,8.3-30.2,25.6-30.6,44.8c-0.4,18.3,11.4,37.7,30,41.9
					c17.5,3.9,37.5-5.7,42.7-23.4c6-20.6-9.6-38.8-25.7-49.3c-15.7-10.2-34.8-16.1-52.8-20.8c-18.5-4.8-37.4-8-56.2-11.5
					c-35.2-6.6-73.1-14.2-101.3-38c-15.6-13.2-25.9-29.9-24.9-50.9c1-21.8,11.8-42.7,21.6-61.8c4.3-8.3,9.1-17.4,17.5-22.2
					c5.7-3.2,14.2-4.7,18,2c2.7,4.7,0.4,8.3-5.1,9c-8.8,1-17.9-2.7-26.2-4.7c-45.2-10.7-92.4-11.5-138-2.6
					c-11.2,2.2-22.2,5-33.1,8.4c-11.5,3.6-6.6,21.7,5,18.1c43.4-13.4,89.8-17.5,134.8-10.8c11.3,1.7,22.5,4,33.5,6.8
					c9.3,2.4,18.9,4.6,28.5,3c8.9-1.5,17.1-7.7,19.7-16.6c2.7-9.2-0.7-19.4-7.4-26.1c-15.9-15.9-40.8-6-52.9,9.3
					c-6.9,8.7-11.7,18.8-16.5,28.7c-4.9,10-9.4,20.3-12.8,30.9c-6.9,21.6-8,44.9,2.5,65.5c9,17.6,25.2,31.3,42,41.2
					c32.6,19.3,70.7,25.2,107.3,32.1c18.5,3.5,37,7.2,54.9,13c16.2,5.2,35.6,12,45.7,26.6c4.1,5.9,6.3,13.9,1.4,20
					c-3.7,4.6-10.4,6.8-16.1,6.2c-15.1-1.7-20.6-21.2-15.2-33.7c7.5-17.3,27.1-24.1,44.6-23.5c19.9,0.6,40.5,8.9,54.9,22.7
					c14.9,14.3,23.3,33.6,32.9,51.5c9.9,18.5,21.3,36.3,34.7,52.5c27.2,33,64.6,58.5,107.7,64.1c10,1.3,20,1.4,30,0.2
					c5-0.6,9.4-3.9,9.4-9.4C1007.8,287,1003.5,281.5,998.4,282.2L998.4,282.2z"/>
			</g>
		</g>
		<g style="clip-path:url(#SVGID_00000052095459587522536760000007160113773730909841_);">
			<g>
				<path class="st2" d="M-33.6,788.6c10.7-87.3,71.2-160.7,143.5-206.6c39.7-25.2,83.2-43.5,128-57.3
					c45.5-14.1,93.5-20.8,137.9-38.2c43.2-16.9,78.7-45.7,103.4-85c24.6-39.1,39.8-88.7,26.5-134.5c-11.6-39.7-44-72.9-86.7-75.3
					c-19.9-1.1-40,4.9-55.6,17.3c-14.6,11.7-22.8,28.8-24.3,47.3c-1.5,17.6,4,35.8,15.4,49.3c12.8,15,33.4,21.8,52.8,19.5
					c42.6-5.1,74-39.6,97.9-72.3c46.6-63.7,74.4-138.3,108.8-208.6c33.7-68.7,77-140.4,147.9-175.9c20.2-10.1,42.4-15.9,65-15.1
					c21.9,0.8,43.2,7.7,62.6,17.5c20.2,10.2,39,23.2,56.8,37.2c17.8,14.1,35.6,28.7,51.7,44.7c15.2,15.1,28.7,33.7,28.8,56
					c0.1,17.2-9.5,33.2-27.4,35.9c-7.5,1.1-15.7-0.7-20.8-6.5c-5.7-6.6-6.3-15.6-4.8-23.8c4.1-21.6,17.6-40.6,27.4-59.8
					c44-86.6,69.5-182.3,74.4-279.3c1.2-23.7,1.1-47.5-0.2-71.3c-0.7-12-19.5-12.1-18.8,0c5.3,97.1-10.7,194.6-46.3,285
					c-8.8,22.3-18.9,44.1-30.1,65.3c-10.3,19.5-22.6,38.7-25.4,61c-2.5,20.2,7.4,40.8,27.8,46.8c17.3,5.1,38.1-1.4,49.8-15
					c14.2-16.5,16-40.3,9.8-60.5c-6.8-22.2-22.6-39.9-39.5-55.2c-33.3-30.3-69.4-61.1-110.6-80.1c-20.6-9.5-42.4-15.8-65.2-16.7
					c-23-0.9-45.4,4.5-66.4,13.8c-37.5,16.5-69.7,45.2-95.4,76.7c-49.4,60.5-78.3,134-111.3,203.9c-16.7,35.4-34.6,70.5-56.7,102.9
					c-10.9,16-22.8,32-36.9,45.3c-14.7,13.8-33.3,26.7-53.8,29.4c-16.9,2.2-33.8-4.7-42.4-19.8c-7.7-13.5-8.5-31.3-2.3-45.6
					c15.3-35.4,64.2-37.7,92.4-18c36.6,25.5,43.5,75.1,32.8,115.4c-11.3,42.4-38.6,82.7-74.6,108c-38.9,27.4-86.6,36-131.9,47.1
					c-46.2,11.3-91.7,26.2-134.5,47C65.6,579.4-4.8,642.3-37.3,727c-7.6,19.9-12.5,40.5-15.1,61.6c-0.6,5.1,4.8,9.4,9.4,9.4
					C-37.4,798-34.2,793.7-33.6,788.6L-33.6,788.6z"/>
			</g>
		</g>
		<g style="clip-path:url(#SVGID_00000052095459587522536760000007160113773730909841_);">
			<g>
				<path class="st2" d="M42.7,798.5C-28.6,740.9-59.3,648.6-58.6,559.2c0.4-52.8,10.6-105,25.5-155.5
					c14.4-48.6,35.7-96.3,37.9-147.6C8.5,170.5-53.2,59.3-149,59.2c-41.7,0-81,25.6-90.8,67.3c-9,38.1,13.5,76.9,52.5,85.1
					c38.4,8.1,68.7-20,74.7-56.6c6.4-38.9-7-76.9-22.5-112c-33.6-76.1-86.3-141.3-128.2-212.6c-20.3-34.6-38.2-71-48.5-109.9
					c-11.1-42-15.5-91.1,3.7-131.5c17.4-36.7,51.6-60,87.6-76.5c18.6-8.5,38-15.2,57.4-21.4c23.4-7.5,47.9-16.5,72.8-15.3
					c18.3,0.9,40.4,10.2,46.6,29c4.5,13.6-2.3,34.1-18.2,36.3c-18.8,2.7-32.6-18.9-40.9-32.5c-11.3-18.7-21.7-37.9-33.8-56.1
					c-49.4-74.3-113.2-138.7-186.8-188.9c-18.1-12.3-36.8-23.7-55.9-34.3c-10.6-5.8-20.1,10.4-9.5,16.3
					c78.3,43.1,147.6,101.6,203.3,171.5c13.7,17.1,26.4,35,38.3,53.4c11.7,18.1,21.2,37.6,33.2,55.4c10.5,15.6,24.7,31.5,44.5,33.9
					c18.5,2.2,34.7-8.9,41.8-25.6c7.5-17.5,4.6-36.8-7.2-51.5c-12.7-15.8-32.9-23.9-52.7-25.5c-24.8-2-49.4,6-72.8,13.4
					c-19.5,6.1-38.9,12.6-57.8,20.6c-36.6,15.4-71.8,36.4-95,69.4C-340-401.6-343.4-353.6-337-309c11.5,80.9,57.2,151.3,101.3,218.1
					c22.9,34.7,46.1,69.3,65.9,105.9c18.2,33.7,37.1,71.9,39.8,110.7c1.1,16.7-0.3,34.7-9.4,49.3c-8.9,14.3-25.3,21.8-41.9,18.8
					c-16.7-3-32.5-14.7-38.7-30.9c-6.9-18.1-2.1-38.4,8.4-54.1c25.3-37.9,78.9-37.1,114.8-16.1c39.1,22.9,65.4,66.5,76.9,109.5
					c13.5,50.7,0.5,99.5-15.6,147.9c-16.5,49.7-31.2,99.5-37.9,151.5C-85.2,592.9-71.2,691-14.5,766c12.8,17,27.4,32.4,43.9,45.8
					C38.7,819.4,52.1,806.1,42.7,798.5L42.7,798.5z"/>
			</g>
		</g>
		<g style="clip-path:url(#SVGID_00000052095459587522536760000007160113773730909841_);">
			<g>
				<path class="st2" d="M247-75.3c1.3,29.6,3.1,59.1,6,88.5c2.5,24.4,5.5,48.9,10.8,72.9c3.6,16.7,8.2,34,16.7,49
					c6.4,11.3,16.7,21.8,30.7,21.7c8.3-0.1,16.3-3.6,23.1-8.2c7.6-5.2,14.3-11.6,20.2-18.7c6.3-7.7,12-15.9,16.6-24.7
					c4.1-7.9,7.7-16.4,9.5-25.1c1.7-8.5,1.9-17.3-2-25.3c-2.4-4.9-6.8-8.8-11.5-11.4c-10.9-5.9-24.1-7.2-36.3-7.1
					c-16.3,0-32.7,2.6-48.5,6.4c-18.6,4.5-36.7,11-54,19.1c-18.1,8.4-35.1,19-50.6,31.6c-15.1,12.3-28.5,27.1-38.4,44
					c-12.6,21.6-18.6,46.2-18.7,71.1c-0.1,23.4,4.6,46.7,9.8,69.4c2.4,10.6,5,21.2,7.1,31.8c1,5,1.9,10,2.7,15
					c0.1,0.7,0.2,1.3,0.3,2c0,0.1-0.3-2.4-0.2-1.3c0,0.3,0.1,0.6,0.1,0.8c0.2,1.2,0.3,2.4,0.4,3.6c0.3,2.5,0.5,4.9,0.6,7.4
					c0.2,4.6,0.2,9.2-0.1,13.8c-0.1,1-0.2,2.1-0.3,3.1c0,0.3-0.1,0.5-0.1,0.8c-0.1,1.3,0.4-2.4,0.2-1.2c-0.1,0.6-0.2,1.2-0.3,1.8
					c-0.4,2.2-0.8,4.3-1.4,6.4c-0.6,2.1-1.2,4.2-2,6.2c-0.2,0.5-0.4,0.9-0.6,1.4c-0.6,1.6,1-2.2,0.1-0.3c-0.5,1-0.9,2-1.4,3
					c-1,2-2.2,3.9-3.4,5.8c-0.6,1-1.3,1.9-2,2.8c-0.5,0.7,1.5-1.9,0.4-0.5c-0.2,0.2-0.4,0.5-0.6,0.7c-2.6,3.2-5.6,6.1-8.8,8.7
					c-0.4,0.3-0.9,0.7-1.3,1c-1,0.8,2.3-1.7,1.2-1c-0.2,0.2-0.5,0.4-0.7,0.5c-0.9,0.7-1.9,1.3-2.8,2c-2,1.4-4.1,2.6-6.3,3.8
					c-2.2,1.2-4.6,2.5-7,3.4c0.3-0.1,2.7-1.1,1.3-0.5c-0.3,0.1-0.6,0.2-0.9,0.4c-0.7,0.3-1.4,0.5-2.1,0.8c-1.3,0.5-2.7,1-4.1,1.4
					c-6.2,2-12.5,3.5-18.9,4.5c-0.8,0.1-1.6,0.3-2.4,0.4c-0.4,0.1-0.8,0.1-1.2,0.2c-0.3,0-0.6,0.1-0.8,0.1c-1.2,0.2,2.6-0.3,1.4-0.2
					c-1.9,0.2-3.7,0.5-5.6,0.6c-4,0.4-8,0.7-12,0.8c-9.3,0.4-18.6,0.2-27.9-0.4c-5.2-0.3-10.5-0.8-15.7-1.3
					c-2.8-0.3-5.6-0.6-8.3-0.9c-0.7-0.1-1.3-0.2-2-0.2c-0.4-0.1-3-0.4-1.3-0.2c1.6,0.2-0.6-0.1-1-0.1c-0.8-0.1-1.6-0.2-2.4-0.3
					c-13-1.9-25.9-4.2-38.7-7c-14.4-3.1-28.8-6.6-43-10.4c-5.1-1.4-11.2,1.7-12.4,7c-1.2,5.3,1.6,10.9,7,12.4
					c26.9,7.2,54.2,13.4,81.8,17.3c20.5,3,41.2,5,62,4.3c14.9-0.5,30.1-2.2,44.4-6.5c10.5-3.1,20.8-7.7,29.6-14.2
					c10.7-8,19.2-18,24.4-30.4c7.9-18.6,7.1-38.9,4.1-58.5c-3.2-21-9-41.6-13.2-62.4c-1.1-5.4-2.1-10.9-3-16.4
					c-0.2-1.4-0.4-2.8-0.6-4.2c0-0.3-0.1-0.6-0.1-1c-0.2-1.1,0.1,1.1,0.1,1.1c-0.1-0.8-0.2-1.5-0.3-2.3c-0.3-2.8-0.6-5.7-0.9-8.5
					c-1-11.3-0.9-22.7,0.4-33.9c0.2-1.9-0.3,2,0,0c0.1-0.7,0.2-1.3,0.3-2c0.2-1.4,0.5-2.9,0.8-4.3c0.6-2.9,1.2-5.8,2-8.6
					c0.8-2.9,1.6-5.8,2.6-8.6c0.5-1.3,0.9-2.7,1.4-4c0.3-0.7,0.5-1.3,0.8-2c0.1-0.3,0.3-0.7,0.4-1c-0.5,2.1-0.3,0.8,0,0.1
					c4-9.2,9.2-17.8,15.2-25.9c0.4-0.5,0.8-1,1.1-1.5c0.1-0.1-1.4,1.8-0.8,1c0.2-0.2,0.3-0.4,0.5-0.6c0.7-0.9,1.5-1.8,2.2-2.7
					c1.5-1.8,3-3.6,4.6-5.3c3.1-3.4,6.4-6.7,9.8-9.9c3.5-3.2,7.1-6.3,10.8-9.3c0.4-0.3,0.9-0.7,1.3-1c0.2-0.2,0.4-0.3,0.7-0.5
					c0.8-0.7-1.1,0.8-0.9,0.7c1-0.7,1.9-1.4,2.9-2.2c1.9-1.4,3.9-2.8,5.9-4.2c7.8-5.4,16-10.3,24.4-14.7c4.1-2.2,8.4-4.2,12.6-6.2
					c2.2-1,4.3-1.9,6.5-2.9c1-0.4-1.3,0.5-1.2,0.5c0.3-0.1,0.5-0.2,0.8-0.3c0.5-0.2,1-0.4,1.5-0.6c1.2-0.5,2.3-1,3.5-1.4
					c16.3-6.4,33.3-11.4,50.5-14.5c1.9-0.3,3.8-0.7,5.7-1c1-0.1,2-0.3,2.9-0.4c0.7-0.1-2.8,0.4-0.9,0.1c0.5-0.1,1-0.1,1.6-0.2
					c3.6-0.4,7.3-0.8,10.9-1c6.5-0.4,13.1-0.4,19.6,0.2c0.7,0.1,1.5,0.2,2.2,0.2c2.3,0.3-2.8-0.4-0.2,0c1.3,0.2,2.7,0.4,4,0.7
					c2.4,0.5,4.7,1.1,7,2c0.5,0.2,1,0.4,1.5,0.6c-2.6-1-1.9-0.9-0.6-0.2c0.9,0.4,1.8,0.9,2.7,1.5c0.4,0.2,0.7,0.5,1.1,0.7
					c1.5,1-2.3-2-0.8-0.6c0.7,0.6,1.3,1.2,1.9,1.9c1.3,1.4-1.5-2.2-0.7-1c0.3,0.5,0.7,1.1,1,1.6c0.1,0.3,0.3,0.6,0.4,0.8
					c0.7,1.1-0.9-2.5-0.5-1.3c0.2,0.7,0.4,1.3,0.6,2c0,0.1,0.5,2.1,0.4,2.1c-0.1,0-0.3-3.2-0.2-1.3c0,0.4,0.1,0.8,0.1,1.2
					c0.1,1.6,0,3.3-0.1,4.9c0,0.4-0.1,0.8-0.1,1.2c-0.1,0.6,0.5-2.9,0.1-1.1c-0.2,1-0.3,1.9-0.5,2.9c-0.4,1.8-0.9,3.6-1.4,5.4
					c-0.6,2-1.3,3.9-2,5.8c-0.2,0.5-0.4,0.9-0.5,1.4c-0.6,1.6,0.9-2.2,0.3-0.6c-0.5,1.1-0.9,2.1-1.4,3.2
					c-3.9,8.2-8.7,15.8-14.1,23.1c-0.4,0.5,1.5-1.9,0.3-0.4c-0.3,0.4-0.7,0.8-1,1.2c-0.7,0.9-1.4,1.8-2.2,2.6
					c-1.5,1.7-3,3.3-4.5,4.9c-1.5,1.5-3,3-4.6,4.5c-0.7,0.6-1.4,1.3-2.2,1.9c-0.4,0.3-0.7,0.6-1.1,0.9c-0.2,0.1-0.4,0.3-0.5,0.4
					c-0.9,0.8,1.9-1.4,0.9-0.7c-3.1,2.2-6.1,4.3-9.5,5.9c-0.4,0.2-1.9,0.8-0.1,0.1c1.8-0.8,0.4-0.2-0.1,0c-0.8,0.3-1.6,0.6-2.5,0.8
					c-0.7,0.2-1.4,0.4-2.1,0.5c-0.3,0.1-0.7,0.1-1,0.2c-0.4,0.1,3-0.3,1.1-0.2c-0.7,0-1.5,0.1-2.2,0.1c-0.3,0-0.7,0-1-0.1
					c-1.7-0.1,2.2,0.4,1.3,0.2c-1-0.3-2-0.5-3-0.8c-2.1-0.7,2.3,1.1,0.8,0.4c-0.5-0.3-1-0.5-1.4-0.7c-0.5-0.3-0.9-0.6-1.4-0.9
					c-0.2-0.1-0.4-0.3-0.6-0.5c-1.3-0.9,1.4,1.1,1.1,0.8c-1.8-1.8-3.5-3.5-5.2-5.4c-0.4-0.5,1.7,2.3,0.8,1c-0.2-0.3-0.4-0.5-0.6-0.8
					c-0.4-0.6-0.8-1.2-1.2-1.8c-0.8-1.3-1.6-2.6-2.4-4c-0.8-1.5-1.6-2.9-2.3-4.4c-0.3-0.7-0.7-1.5-1-2.2c-0.2-0.4-0.3-0.8-0.5-1.1
					c-0.8-1.8,0.4,1,0.3,0.7c-1.4-3.7-2.8-7.4-4.1-11.1c-6.3-19.3-9.8-39.5-12.7-59.6c-0.2-1.4-0.4-2.8-0.6-4.2
					c-0.1-0.4-0.4-2.7-0.2-1.1c0.2,1.4,0,0.2,0-0.1c-0.1-0.5-0.1-0.9-0.2-1.4c-0.4-3.1-0.8-6.3-1.2-9.4c-0.8-6.4-1.5-12.9-2.1-19.3
					c-1.4-14-2.5-28-3.4-42c-1-14.7-1.7-29.4-2.4-44.2c-0.2-5.3-4.5-10.3-10.1-10.1C251.8-85.2,246.8-81,247-75.3L247-75.3z"/>
			</g>
		</g>
		<g style="clip-path:url(#SVGID_00000052095459587522536760000007160113773730909841_);">
			<g>
				<path class="st2" d="M321,540.4c15.7-26.4,30.9-53,45-80.3c11.5-22.2,22.3-44.9,31-68.4c8.9-24.3,24.2-70.6-9.4-83.4
					c-7.4-2.8-16-3-23.8-2.1c-9.6,1.1-19,3.3-28,6.7c-16.5,6.2-34.3,15.2-45.5,29.3c-4.9,6.2-8.9,13.6-8.4,21.8
					c0.4,6.1,2.9,11.9,6.5,16.8c9.1,12.4,22.5,21.3,36,28.4c37,19.6,80.3,29.9,122.1,30c44.3,0.2,89.3-13,120-46.3
					c26.8-29.2,39.2-67.1,52.8-103.4c1.5-4,3.1-8.1,4.7-12.1c0.4-1.1,0.9-2.2,1.3-3.3c0.1-0.4,0.3-0.7,0.5-1.1
					c-1.1,2.9-0.4,0.9-0.1,0.3c0.8-1.9,1.7-3.9,2.6-5.8c3.3-7.3,7.1-14.4,11.6-21c0.5-0.7,1-1.4,1.5-2.1c0.3-0.4,0.6-0.8,0.9-1.2
					c1.2-1.7,0.2,0.4-0.3,0.4c0.6,0,3-3.6,3.6-4.3c2.5-2.7,5.1-5.2,7.9-7.6c2-1.7-1.8,1.3,0.3-0.2c0.7-0.5,1.5-1.1,2.2-1.6
					c1.6-1.1,3.3-2.1,4.9-3c0.6-0.3,4.5-1.8,4.6-2.2c-0.1,0.5-2.5,1-0.5,0.2c0.5-0.2,1-0.4,1.5-0.6c0.8-0.3,1.7-0.6,2.5-0.9
					c1.9-0.6,3.9-1.1,5.9-1.6c0.9-0.2,1.9-0.4,2.8-0.5c0.5-0.1,1.1-0.2,1.6-0.2c1.4-0.2-3.3,0.4-0.5,0.1c4.6-0.5,9.3-0.5,13.9-0.2
					c1.2,0.1,2.4,0.2,3.6,0.4c1.1,0.1-3-0.5-0.5-0.1c0.7,0.1,1.4,0.2,2.2,0.4c2.8,0.5,5.6,1.1,8.3,1.8c3,0.8,5.9,1.7,8.8,2.7
					c1.6,0.5,3.1,1.1,4.6,1.7c0.7,0.3,1.4,0.6,2.2,0.9c1.7,0.7-2.4-1-0.7-0.3c0.4,0.2,0.9,0.4,1.3,0.6c15.6,6.9,30.1,16.2,43.7,26.3
					c0.9,0.7,1.9,1.4,2.8,2.1c0.6,0.4,1.1,0.8,1.7,1.3c-0.2-0.2-1.8-1.4-0.3-0.3c2.3,1.8,4.7,3.7,6.9,5.5c4.5,3.7,8.9,7.4,13.3,11.3
					c9.6,8.5,18.9,17.3,28,26.4c10.6,10.6,20.8,21.6,30.8,32.8c3.5,3.9,10.7,3.9,14.3,0c3.9-4.2,3.8-10.1,0-14.3
					c-18.6-20.7-37.9-40.8-58.8-59.2c-15.5-13.7-31.9-26.6-49.6-37.5c-21.6-13.2-47.2-24.6-73.2-23c-11.8,0.7-23.4,3.9-33.6,9.9
					c-13.9,8.2-24.2,21.2-32,35.2c-8.5,15.3-14.4,31.9-20.5,48.3c-3.1,8.5-6.3,17.1-9.6,25.5c-0.9,2.2-1.8,4.4-2.7,6.6
					c-0.4,0.9-0.8,0.7,0.3-0.6c-0.3,0.4-0.5,1.3-0.8,1.8c-0.5,1.2-1,2.4-1.6,3.6c-1.8,4.1-3.8,8.3-5.8,12.3c-4.2,8.3-9,16.4-14.4,24
					c-0.7,1-1.4,1.9-2.1,2.9c-0.6,0.8-0.5,1.6,0.2-0.2c-0.2,0.5-0.9,1.1-1.2,1.5c-1.5,1.9-3.1,3.7-4.7,5.5c-3.1,3.5-6.4,6.8-9.9,10
					c-1.9,1.7-3.8,3.3-5.7,4.9c-0.4,0.3-1.4,1.2,0.4-0.3c-0.5,0.4-1.1,0.8-1.7,1.3c-1.1,0.8-2.3,1.7-3.4,2.4
					c-4.2,2.9-8.5,5.5-13,7.8c-2.4,1.2-4.8,2.4-7.2,3.5c-0.4,0.2-0.9,0.4-1.3,0.6c-2.3,1,2.1-0.8-0.3,0.1c-1.4,0.5-2.7,1.1-4.1,1.6
					c-4.8,1.8-9.7,3.3-14.7,4.6c-5.3,1.4-10.6,2.5-15.9,3.3c-1.2,0.2-2.5,0.5-3.7,0.6c3-0.2-1.2,0.1-1.8,0.2
					c-2.7,0.3-5.5,0.6-8.2,0.8c-10.8,0.8-21.6,0.7-32.3,0c-2.7-0.2-5.5-0.4-8.2-0.7c-1.2-0.1-2.5-0.3-3.7-0.4
					c-0.5-0.1-1-0.1-1.5-0.2c-0.6-0.1-4-0.3-1-0.1c-5.1-0.4-10.3-1.6-15.4-2.6c-10.1-2-20.1-4.6-29.9-7.7c-4.8-1.5-9.5-3.2-14.2-4.9
					c-2-0.8-4.1-1.6-6.1-2.4c-0.9-0.4-1.8-1.4,0,0c-0.3-0.2-0.9-0.4-1.2-0.5c-1.2-0.5-2.3-1-3.5-1.5c-7.6-3.4-15-7.3-22.1-11.8
					c-1.6-1-3.2-2.1-4.8-3.2c-0.7-0.5-1.4-1-2-1.5c-0.8-0.6-3.1-2.9-0.7-0.5c-2.2-2.2-4.8-4-7.1-6.1c-1-1-2.1-2.1-3-3.2
					c-0.4-0.5-0.8-1-1.2-1.5c-0.9-1,0.9,1.2,0.9,1.2c-0.2-0.4-0.6-0.8-0.8-1.2c-0.7-0.9-1.3-1.9-1.8-2.9c-0.3-0.5-0.5-0.9-0.7-1.4
					c-1.2-2.3,0.8,2.4,0.2,0.4c-0.3-1-0.6-2-0.9-3c-0.6-2.2,0.1,2.1,0.1,1.1c0-0.6,0-1.2-0.1-1.8c0-0.2,0.1-0.5,0-0.7
					c-0.1-1.6-0.6,2.8-0.2,1.2c0.2-0.6,0.3-1.2,0.4-1.8c0.2-0.6,0.5-1.2,0.6-1.8c-0.6,2.7-0.9,1.9-0.4,0.9c0.2-0.4,0.4-0.7,0.6-1.1
					c0.8-1.4,2-2.7,2.7-4.1c0,0.1-1.7,2-0.7,0.9c0.3-0.4,0.6-0.7,0.9-1.1c0.7-0.7,1.3-1.5,2-2.2c1.2-1.2,2.5-2.4,3.8-3.6
					c0.7-0.6,1.4-1.2,2.1-1.7c1.6-1.3-1.9,1.4-0.3,0.2c0.5-0.3,0.9-0.7,1.4-1c3.6-2.6,7.3-4.9,11.2-7c1.8-1,3.7-2,5.6-2.9
					c1-0.5,1.9-0.9,2.9-1.4c0.6-0.3,1.2-0.5,1.7-0.8c0.9-0.4,2.2-0.4-0.1,0c2.1-0.4,4.5-1.8,6.5-2.5c2.2-0.8,4.4-1.5,6.6-2.1
					c4.1-1.2,8.2-2.2,12.4-2.9c0.6-0.1,1.2-0.2,1.7-0.3c1.7-0.3-0.9,0.1-1,0.1c1,0,2.1-0.2,3.1-0.3c2.1-0.2,4.1-0.3,6.2-0.2
					c1.7,0,3.4,0.3,5,0.3c-3.4,0-0.9-0.1,0.1,0.1c0.9,0.2,1.8,0.4,2.7,0.6c0.7,0.2,1.4,0.4,2.1,0.7c2.3,0.8-2.3-1.3,0.1,0.1
					c0.6,0.4,1.3,0.7,1.9,1.1c0.2,0.1,0.4,0.3,0.7,0.5c1.3,0.8-2.1-2-0.5-0.3c0.3,0.3,0.7,0.7,1.1,1c0.8,0.8,1.2,2.2-0.4-0.7
					c0.6,1,1.3,1.8,1.8,2.8c0.1,0.3,0.3,0.6,0.4,0.8c0.6,1.1-0.7-1.6-0.6-1.5c0.1,0.6,0.4,1.1,0.6,1.7c0.4,1.3,0.7,2.6,1,3.9
					c0.2,1,0.1,3.3,0-0.5c0,0.6,0.1,1.3,0.2,1.9c0.1,1.5,0.1,3,0.1,4.5c0,1.6-0.1,3.1-0.2,4.6c-0.1,0.9-0.2,1.7-0.3,2.6
					c0,0.3-0.1,0.7-0.1,1c0-3.3,0.2-1.2,0-0.2c-0.6,3.7-1.3,7.4-2.2,11.1c-2.2,9-5.1,17.8-8.4,26.4c-0.9,2.4-1.8,4.8-2.8,7.2
					c-0.5,1.3-1,2.6-1.6,3.9c-0.2,0.5-0.4,0.9-0.6,1.4c-0.2,0.4-1.5,3.6-0.5,1.2c-2.2,5.3-4.6,10.5-6.9,15.7
					c-11.5,24.9-24.4,49.1-37.8,73c-7.5,13.3-15.2,26.5-23,39.7c-2.7,4.5-1.2,11.3,3.6,13.8C312,546.6,318.1,545.3,321,540.4
					L321,540.4z"/>
			</g>
		</g>
		<g style="clip-path:url(#SVGID_00000052095459587522536760000007160113773730909841_);">
			<g>
				<path class="st2" d="M1245.3,159.1c-29.6,1.3-59.1,3.1-88.5,6c-24.4,2.5-48.9,5.5-72.9,10.8c-16.7,3.6-34,8.2-49,16.7
					c-11.3,6.4-21.8,16.7-21.7,30.7c0.1,8.3,3.6,16.3,8.2,23.1c5.2,7.6,11.6,14.3,18.7,20.2c7.7,6.3,15.9,12,24.7,16.6
					c7.9,4.1,16.4,7.7,25.1,9.5c8.5,1.7,17.3,1.9,25.3-2c4.9-2.4,8.8-6.8,11.4-11.5c5.9-10.9,7.2-24.1,7.1-36.3
					c0-16.3-2.6-32.7-6.4-48.5c-4.5-18.6-11-36.7-19.1-54c-8.4-18.1-19-35.1-31.6-50.6c-12.3-15.1-27.1-28.5-44-38.4
					c-21.6-12.6-46.2-18.6-71.1-18.7c-23.4-0.1-46.7,4.6-69.4,9.8c-10.6,2.4-21.2,5-31.8,7.1c-5,1-10,1.9-15,2.7
					c-0.7,0.1-1.3,0.2-2,0.3c-0.1,0,2.4-0.3,1.3-0.2c-0.3,0-0.6,0.1-0.8,0.1c-1.2,0.2-2.4,0.3-3.6,0.4c-2.5,0.3-4.9,0.5-7.4,0.6
					c-4.6,0.2-9.2,0.2-13.8-0.1c-1-0.1-2.1-0.2-3.1-0.3c-0.3,0-0.5-0.1-0.8-0.1c-1.3-0.1,2.4,0.4,1.2,0.2c-0.6-0.1-1.2-0.2-1.8-0.3
					c-2.2-0.4-4.3-0.8-6.4-1.4c-2.1-0.6-4.2-1.2-6.2-2c-0.5-0.2-0.9-0.4-1.4-0.6c-1.6-0.6,2.2,1,0.3,0.1c-1-0.5-2-0.9-3-1.4
					c-2-1-3.9-2.2-5.8-3.4c-1-0.6-1.9-1.3-2.8-2c-0.7-0.5,1.9,1.5,0.5,0.4c-0.2-0.2-0.5-0.4-0.7-0.6c-3.2-2.6-6.1-5.6-8.7-8.8
					c-0.3-0.4-0.7-0.9-1-1.3c-0.8-1,1.7,2.3,1,1.2c-0.2-0.2-0.4-0.5-0.5-0.7c-0.7-0.9-1.3-1.9-2-2.8c-1.4-2-2.6-4.1-3.8-6.3
					c-1.2-2.2-2.5-4.6-3.4-7c0.1,0.3,1.1,2.7,0.5,1.3c-0.1-0.3-0.2-0.6-0.4-0.9c-0.3-0.7-0.5-1.4-0.8-2.1c-0.5-1.3-1-2.7-1.4-4.1
					c-2-6.2-3.5-12.5-4.5-18.9c-0.1-0.8-0.3-1.6-0.4-2.4c-0.1-0.4-0.1-0.8-0.2-1.2c0-0.3-0.1-0.6-0.1-0.8c-0.2-1.2,0.3,2.6,0.2,1.4
					c-0.2-1.9-0.5-3.7-0.6-5.6c-0.4-4-0.7-8-0.8-12c-0.4-9.3-0.2-18.6,0.4-27.9c0.3-5.2,0.8-10.5,1.3-15.7c0.3-2.8,0.6-5.6,0.9-8.3
					c0.1-0.7,0.2-1.3,0.2-2c0.1-0.4,0.4-3,0.2-1.3c-0.2,1.6,0.1-0.6,0.1-1c0.1-0.8,0.2-1.6,0.3-2.4c1.9-13,4.2-25.9,7-38.7
					c3.1-14.4,6.6-28.8,10.4-43c1.4-5.1-1.7-11.2-7-12.4c-5.3-1.2-10.9,1.6-12.4,7c-7.2,26.9-13.4,54.2-17.3,81.8
					c-3,20.5-5,41.2-4.3,62c0.5,14.9,2.2,30.1,6.5,44.4c3.1,10.5,7.7,20.8,14.2,29.6c8,10.7,18,19.2,30.4,24.4
					c18.6,7.9,38.9,7.1,58.5,4.1c21-3.2,41.6-9,62.4-13.2c5.4-1.1,10.9-2.1,16.4-3c1.4-0.2,2.8-0.4,4.2-0.6c0.3,0,0.6-0.1,1-0.1
					c1.1-0.2-1.1,0.1-1.1,0.1c0.8-0.1,1.5-0.2,2.3-0.3c2.8-0.3,5.7-0.6,8.5-0.9c11.3-1,22.7-0.9,33.9,0.4c1.9,0.2-2-0.3,0,0
					c0.7,0.1,1.3,0.2,2,0.3c1.4,0.2,2.9,0.5,4.3,0.8c2.9,0.6,5.8,1.2,8.6,2c2.9,0.8,5.8,1.6,8.6,2.6c1.3,0.5,2.7,0.9,4,1.4
					c0.7,0.3,1.3,0.5,2,0.8c0.3,0.1,0.7,0.3,1,0.4c-2.1-0.5-0.8-0.3-0.1,0c9.2,4,17.8,9.2,25.9,15.2c0.5,0.4,1,0.8,1.5,1.1
					c0.1,0.1-1.8-1.4-1-0.8c0.2,0.2,0.4,0.3,0.6,0.5c0.9,0.7,1.8,1.5,2.7,2.2c1.8,1.5,3.6,3,5.3,4.6c3.4,3.1,6.7,6.4,9.9,9.8
					c3.2,3.5,6.3,7.1,9.3,10.8c0.3,0.4,0.7,0.9,1,1.3c0.2,0.2,0.3,0.4,0.5,0.7c0.7,0.8-0.8-1.1-0.7-0.9c0.7,1,1.4,1.9,2.2,2.9
					c1.4,1.9,2.8,3.9,4.2,5.9c5.4,7.8,10.3,16,14.7,24.4c2.2,4.1,4.2,8.4,6.2,12.6c1,2.2,1.9,4.3,2.9,6.5c0.4,1-0.5-1.3-0.5-1.2
					c0.1,0.3,0.2,0.5,0.3,0.8c0.2,0.5,0.4,1,0.6,1.5c0.5,1.2,1,2.3,1.4,3.5c6.4,16.3,11.4,33.3,14.5,50.5c0.3,1.9,0.7,3.8,1,5.7
					c0.1,1,0.3,2,0.4,2.9c0.1,0.7-0.4-2.8-0.1-0.9c0.1,0.5,0.1,1,0.2,1.6c0.4,3.6,0.8,7.3,1,10.9c0.4,6.5,0.4,13.1-0.2,19.6
					c-0.1,0.7-0.2,1.5-0.2,2.2c-0.3,2.3,0.4-2.8,0-0.2c-0.2,1.3-0.4,2.7-0.7,4c-0.5,2.4-1.1,4.7-2,7c-0.2,0.5-0.4,1-0.6,1.5
					c1-2.6,0.9-1.9,0.2-0.6c-0.4,0.9-0.9,1.8-1.5,2.7c-0.2,0.4-0.5,0.7-0.7,1.1c-1,1.5,2-2.3,0.6-0.8c-0.6,0.7-1.2,1.3-1.9,1.9
					c-1.4,1.3,2.2-1.5,1-0.7c-0.5,0.3-1.1,0.7-1.6,1c-0.3,0.1-0.6,0.3-0.8,0.4c-1.1,0.7,2.5-0.9,1.3-0.5c-0.7,0.2-1.3,0.4-2,0.6
					c-0.1,0-2.1,0.5-2.1,0.4c0-0.1,3.2-0.3,1.3-0.2c-0.4,0-0.8,0.1-1.2,0.1c-1.6,0.1-3.3,0-4.9-0.1c-0.4,0-0.8-0.1-1.2-0.1
					c-0.6-0.1,2.9,0.5,1.1,0.1c-1-0.2-1.9-0.3-2.9-0.5c-1.8-0.4-3.6-0.9-5.4-1.4c-2-0.6-3.9-1.3-5.8-2c-0.5-0.2-0.9-0.4-1.4-0.5
					c-1.6-0.6,2.2,0.9,0.6,0.3c-1.1-0.5-2.1-0.9-3.2-1.4c-8.2-3.9-15.8-8.7-23.1-14.1c-0.5-0.4,1.9,1.5,0.4,0.3
					c-0.4-0.3-0.8-0.7-1.2-1c-0.9-0.7-1.8-1.4-2.6-2.2c-1.7-1.5-3.3-3-4.9-4.5c-1.5-1.5-3-3-4.5-4.6c-0.6-0.7-1.3-1.4-1.9-2.2
					c-0.3-0.4-0.6-0.7-0.9-1.1c-0.1-0.2-0.3-0.4-0.4-0.5c-0.8-0.9,1.4,1.9,0.7,0.9c-2.2-3.1-4.3-6.1-5.9-9.5
					c-0.2-0.4-0.8-1.9-0.1-0.1c0.8,1.8,0.2,0.4,0-0.1c-0.3-0.8-0.6-1.6-0.8-2.5c-0.2-0.7-0.4-1.4-0.5-2.1c-0.1-0.3-0.1-0.7-0.2-1
					c-0.1-0.4,0.3,3,0.2,1.1c0-0.7-0.1-1.5-0.1-2.2c0-0.3,0-0.7,0.1-1c0.1-1.7-0.4,2.2-0.2,1.3c0.3-1,0.5-2,0.8-3
					c0.7-2.1-1.1,2.3-0.4,0.8c0.3-0.5,0.5-1,0.7-1.4c0.3-0.5,0.6-0.9,0.9-1.4c0.1-0.2,0.3-0.4,0.5-0.6c0.9-1.3-1.1,1.4-0.8,1.1
					c1.8-1.8,3.5-3.5,5.4-5.2c0.5-0.4-2.3,1.7-1,0.8c0.3-0.2,0.5-0.4,0.8-0.6c0.6-0.4,1.2-0.8,1.8-1.2c1.3-0.8,2.6-1.6,4-2.4
					c1.5-0.8,2.9-1.6,4.4-2.3c0.7-0.3,1.5-0.7,2.2-1c0.4-0.2,0.8-0.3,1.1-0.5c1.8-0.8-1,0.4-0.7,0.3c3.7-1.4,7.4-2.8,11.1-4.1
					c19.3-6.3,39.5-9.8,59.6-12.7c1.4-0.2,2.8-0.4,4.2-0.6c0.4-0.1,2.7-0.4,1.1-0.2c-1.4,0.2-0.2,0,0.1,0c0.5-0.1,0.9-0.1,1.4-0.2
					c3.1-0.4,6.3-0.8,9.4-1.2c6.4-0.8,12.9-1.5,19.3-2.1c14-1.4,28-2.5,42-3.4c14.7-1,29.4-1.7,44.2-2.4c5.3-0.2,10.3-4.5,10.1-10.1
					C1255.1,163.9,1250.9,158.8,1245.3,159.1L1245.3,159.1z"/>
			</g>
		</g>
	</g>
</g>
</svg>
